<svg xmlns="http://www.w3.org/2000/svg" viewBox="0 0 24 24" width="20" height="20" fill="#E1306C">
  <path d="M12 2.163c3.204 0 3.584.012 4.85.07 1.17.056 1.97.24 2.427.403.592.216 1.018.477 1.463.922.445.445.706.871.922 1.463.163.457.347 1.257.403 2.427.058 1.266.07 1.645.07 4.85s-.012 3.584-.07 4.85c-.056 1.17-.24 1.97-.403 2.427-.216.592-.477 1.018-.922 1.463-.445.445-.871.706-1.463.922-.457.163-1.257.347-2.427.403-1.266.058-1.645.07-4.85.07s-3.584-.012-4.85-.07c-1.17-.056-1.97-.24-2.427-.403-.592-.216-1.018-.477-1.463-.922-.445-.445-.706-.871-.922-1.463-.163-.457-.347-1.257-.403-2.427C2.175 15.584 2.163 15.204 2.163 12s.012-3.584.07-4.85c.056-1.17.24-1.97.403-2.427.216-.592.477-1.018.922-1.463.445-.445.871-.706 1.463-.922.457-.163 1.257-.347 2.427-.403C8.416 2.175 8.796 2.163 12 2.163zm0-2.163C8.741 0 8.332.013 7.052.072 5.773.13 4.7.356 3.768.715 2.808 1.09 2.02 1.66 1.29 2.39c-.73.73-1.3 1.517-1.675 2.477-.359.932-.585 2.005-.643 3.285C-.013 8.332 0 8.741 0 12s-.013 3.668.072 4.948c.058 1.28.284 2.353.643 3.285.375.96.945 1.747 1.675 2.477.73.73 1.517 1.3 2.477 1.675.932.359 2.005.585 3.285.643C8.332 24.013 8.741 24 12 24s3.668.013 4.948-.072c1.28-.058 2.353-.284 3.285-.643.96-.375 1.747-.945 2.477-1.675.73-.73 1.3-1.517 1.675-2.477.359-.932.585-2.005.643-3.285.085-1.28.072-1.689.072-4.948s.013-3.668-.072-4.948c-.058-1.28-.284-2.353-.643-3.285C22.376 2.608 21.806 1.82 21.076 1.09 20.346.36 19.559-.21 18.599-.585c-.932-.359-2.005-.585-3.285-.643C15.668-.013 15.259 0 12 0z"/>
  <path d="M12 5.838a6.162 6.162 0 1 0 0 12.324 6.162 6.162 0 0 0 0-12.324zM12 16.338a4.338 4.338 0 1 1 0-8.676 4.338 4.338 0 0 1 0 8.676zM18.406 4.594a1.44 1.44 0 1 0 0 2.88 1.44 1.44 0 0 0 0-2.88z"/>
</svg>
