<svg xmlns="http://www.w3.org/2000/svg" viewBox="0 0 24 24" width="20" height="20" fill="#1DA1F2">
  <path d="M22.46 6c-.77.35-1.6.58-2.46.69a4.3 4.3 0 0 0 1.88-2.37 8.6 8.6 0 0 1-2.72 1.04 4.28 4.28 0 0 0-7.3 3.9A12.12 12.12 0 0 1 3.15 4.9a4.28 4.28 0 0 0 1.33 5.72 4.25 4.25 0 0 1-1.94-.54v.05a4.28 4.28 0 0 0 3.44 4.19c-.55.15-1.12.18-1.7.07a4.29 4.29 0 0 0 4 2.98 8.6 8.6 0 0 1-5.33 1.83c-.35 0-.7-.02-1.04-.06A12.15 12.15 0 0 0 12.12 21c7.29 0 11.28-6.04 11.28-11.28 0-.17 0-.34-.01-.51A8.05 8.05 0 0 0 22.46 6z"/>
</svg>
