<?xml version="1.0" encoding="UTF-8"?>
<svg id="Layer_1" xmlns="http://www.w3.org/2000/svg" version="1.1" viewBox="0 0 2000 2000">
  <!-- Generator: Adobe Illustrator 29.7.1, SVG Export Plug-In . SVG Version: 2.1.1 Build 8)  -->
  <rect width="2000" height="2000" fill="#fff"/>
  <g>
    <path d="M1195.441,632.044c-52.267-52.255-121.743-81.044-195.648-81.044s-143.393,28.789-195.66,81.044c-52.255,52.267-81.031,121.743-81.031,195.648s28.777,143.393,81.031,195.66c10.954,10.954,22.668,20.877,35.02,29.721,12.095,8.66,24.815,16.277,38.026,22.815,37.645,18.645,79.363,28.495,122.614,28.495s84.957-9.85,122.602-28.495c13.211-6.538,25.931-14.155,38.026-22.828,12.352-8.832,24.067-18.755,35.02-29.709,52.255-52.267,81.044-121.743,81.044-195.66s-28.789-143.381-81.044-195.648ZM999.793,1066.358c-44.809,0-86.76-12.401-122.614-33.965v-179.91l122.614-120.468,122.602,120.468v179.91c-35.854,21.564-77.805,33.965-122.602,33.965ZM1160.42,1004.069v-159.56c0-5.103-2.048-9.985-5.679-13.554l-141.627-139.162c-7.397-7.262-19.258-7.262-26.655,0l-141.615,139.162c-3.643,3.57-5.692,8.452-5.692,13.554v159.56c-47.912-43.693-78.026-106.582-78.026-176.378,0-131.593,107.061-238.666,238.666-238.666s238.666,107.073,238.666,238.666c0,69.795-30.114,132.685-78.038,176.378Z" fill="#549088"/>
    <g>
      <path d="M526.628,1447.553c-35.315,0-65.381-11.933-89.361-35.468-23.977-23.526-36.134-53.271-36.134-88.41s12.157-64.885,36.134-88.411c23.98-23.534,54.046-35.467,89.362-35.467s65.376,11.933,89.362,35.467c23.976,23.531,36.133,53.277,36.133,88.411s-12.157,64.879-36.134,88.41c-23.985,23.535-54.051,35.468-89.361,35.468ZM526.628,1234.719c-24.112,0-44.742,8.742-61.318,25.984-16.565,17.233-24.964,38.419-24.964,62.972s8.399,45.742,24.964,62.97c16.57,17.242,37.2,25.984,61.318,25.984s44.742-8.742,61.317-25.984c16.566-17.234,24.965-38.42,24.965-62.97s-8.399-45.733-24.964-62.972c-16.582-17.242-37.212-25.984-61.318-25.984Z" fill="#549088"/>
      <path d="M1238.977,1447.553c-35.315,0-65.381-11.933-89.361-35.468-23.977-23.526-36.134-53.271-36.134-88.41s12.157-64.885,36.134-88.411c23.98-23.534,54.046-35.467,89.362-35.467s65.376,11.933,89.362,35.467c23.976,23.531,36.133,53.277,36.133,88.411s-12.157,64.879-36.134,88.41c-23.985,23.535-54.051,35.468-89.361,35.468ZM1238.977,1234.719c-24.112,0-44.742,8.742-61.318,25.984-16.565,17.233-24.964,38.419-24.964,62.972s8.399,45.742,24.964,62.97c16.57,17.242,37.2,25.984,61.318,25.984s44.742-8.742,61.317-25.984c16.566-17.234,24.965-38.42,24.965-62.97s-8.399-45.733-24.964-62.972c-16.582-17.242-37.212-25.984-61.318-25.984Z" fill="#549088"/>
      <path d="M731.64,1201.493h40.328v244.364h-40.328v-244.364Z" fill="#549088"/>
      <path d="M972.191,1305.423l97.849-102.976h-48.207l-111.869,119.216v-119.216h-41.252v242.456h41.252v-73.99l35.585-35.707,79.792,109.698h48.93l-102.08-139.481Z" fill="#549088"/>
      <path d="M1512.282,1449c-37.358,0-71.006-12.922-100.026-38.408l24.31-29.239c24.527,20.999,50.348,31.645,76.765,31.645,13.489,0,24.377-2.961,32.362-8.802,8.104-5.926,12.214-13.904,12.214-23.712s-3.878-17.56-11.526-23.022c-7.427-5.305-20.332-10.193-38.357-14.529-17.823-4.28-31.532-8.262-40.745-11.836-9.165-3.548-17.405-8.249-24.494-13.97-14.09-10.677-21.218-27.285-21.218-49.386s8.126-39.344,24.153-51.28c16.137-12.016,36.414-18.11,60.27-18.11,15.4,0,30.913,2.566,46.108,7.628,14.763,4.922,27.736,11.895,38.58,20.732l-20.577,29.07c-7.221-6.205-16.888-11.389-28.758-15.422-12.426-4.218-24.849-6.357-36.926-6.357-12.184,0-22.344,2.535-30.2,7.533-8.032,5.113-12.105,12.929-12.105,23.234s4.062,18.275,12.072,23.736c7.783,5.307,24.444,11.071,49.521,17.133,24.744,5.991,43.626,14.488,56.121,25.258,29.083,25.07,22.822,75.436-5.049,98.458-15.781,13.035-36.807,19.645-62.495,19.645Z" fill="#549088"/>
    </g>
  </g>
</svg>