<svg viewBox="208 664 1588 712" version="1.1" xmlns="http://www.w3.org/2000/svg" id="Layer_1" style="max-height: 500px" width="1588" height="712">
  
  <defs>
    <style>
      .st0 {
        fill: #fff;
      }

      .st1 {
        fill: #549080;
      }
    </style>
  </defs>
  <rect height="2000" width="2000" x="0" class="st0"/>
  <g>
    <path d="M1518.17,1313c-34.5,0-67.99-6.76-99.54-20.11-30.45-12.88-57.79-31.31-81.26-54.78-23.47-23.47-41.9-50.81-54.78-81.26-13.34-31.54-20.11-65.03-20.11-99.54s6.76-67.99,20.11-99.54c12.88-30.45,31.31-57.79,54.78-81.26,23.47-23.47,50.81-41.9,81.26-54.78,31.54-13.34,65.03-20.11,99.54-20.11s67.99,6.76,99.54,20.11c30.45,12.88,57.79,31.31,81.26,54.78,23.47,23.47,41.9,50.81,54.78,81.26,13.34,31.54,20.11,65.03,20.11,99.54s-6.76,67.99-20.11,99.54c-12.88,30.45-31.31,57.79-54.78,81.26-23.47,23.47-50.81,41.9-81.26,54.78-31.54,13.34-65.03,20.11-99.54,20.11ZM1518.17,866.06c-105.45,0-191.25,85.79-191.25,191.25s85.79,191.25,191.25,191.25,191.25-85.79,191.25-191.25-85.79-191.25-191.25-191.25Z" class="st1"/>
    <rect height="491.2" width="64.44" y="810.81" x="945.72" class="st1"/>
    <rect height="604.38" width="64.44" y="697.63" x="1104.1" class="st1"/>
    <rect height="62.18" width="64.44" y="697.63" x="945.72" class="st1"/>
    <path d="M827.19,878.05c-15.75-37.26-38.31-70.71-67.03-99.43-28.72-28.72-62.17-51.26-99.43-67.03-38.58-16.32-79.54-24.59-121.77-24.59s-83.19,8.28-121.78,24.59c-37.25,15.77-70.71,38.31-99.41,67.03-28.72,28.72-51.28,62.17-67.03,99.43-16.33,38.58-24.61,79.56-24.61,121.77s8.28,83.19,24.61,121.78c15.75,37.25,38.31,70.71,67.03,99.43,28.7,28.7,62.17,51.26,99.41,67.01,38.59,16.33,79.56,24.61,121.78,24.61s83.19-8.28,121.77-24.61c5.35-2.27,10.61-4.66,15.78-7.2-18.07-12.61-34.98-28.67-50.84-48.27-27.02,10.11-56.22,15.63-86.71,15.63-.75,0-1.52,0-2.27-.02-45.49-.41-88.1-13.11-124.66-34.93-72.68-43.38-121.45-122.81-121.45-213.43,0-136.95,111.43-248.38,248.38-248.38s248.38,111.43,248.38,248.38c0,70.13-29.21,133.54-76.1,178.74,11.4,16.57,25.14,32.85,43.89,47.38,1.69-1.63,3.36-3.25,5.02-4.91,28.72-28.72,51.28-62.18,67.03-99.43,16.32-38.59,24.59-79.56,24.59-121.78s-8.28-83.19-24.59-121.77Z" class="st1"/>
    <path d="M663.34,1135.7c6.67,9.65,19.25,19.09,34.53,23.28-75.49-86.87-33.16-147.35-150.73-217.57-11.1-30.91-37.97-70.97-73.68-80.41-35.71-9.44-78.97,9.15-89.97,32.1-23.92-.56-42.91,13.5-42.91,13.5,39.36,3.22,59.57,31.97,62.95,101.1,3.58,73.66,14.73,110.52,82.66,163.15,13.36,10.35,27.44,17.81,41.6,22.94-1.29,2.44-2.23,4.24-2.23,4.24,0,0-8.28,10.37-39.66,25.85-33.06,6.88-51.38-8.69-61.56,3.7,2.5,9.8,25.97,3.35,35.44,7.82,9.47,4.47,15.56,11.42,20.26,8.68,4.7-2.74,32.59,12.74,37.07,8.92,4.48-3.83-6.54-13.39-25.44-17.5,17.37-12.06,51.31-27.7,65.91-34.21,23.73,3.51,46.48,1.28,65.25-4.22,49.28,73.34,118.93,119.99,228.96,91.12-127.56-27.97-156.31-99.47-188.45-152.5Z" class="st1"/>
  </g>
</svg>